<svg width="35" height="35" viewBox="0 0 35 35" fill="none" xmlns="http://www.w3.org/2000/svg">
<path fill-rule="evenodd" clip-rule="evenodd" d="M18.8737 6.1237C19.2886 5.70877 19.9614 5.70877 20.3763 6.1237L31.0013 16.7487C31.2006 16.948 31.3125 17.2182 31.3125 17.5C31.3125 17.7818 31.2006 18.052 31.0013 18.2513L20.3763 28.8763C19.9614 29.2912 19.2886 29.2912 18.8737 28.8763C18.4588 28.4614 18.4588 27.7886 18.8737 27.3737L27.6849 18.5625H4.75C4.1632 18.5625 3.6875 18.0868 3.6875 17.5C3.6875 16.9132 4.1632 16.4375 4.75 16.4375H27.6849L18.8737 7.6263C18.4588 7.21137 18.4588 6.53863 18.8737 6.1237Z" fill="#010101"/>
</svg>
