<svg width="27" height="27" viewBox="0 0 27 27" fill="none" xmlns="http://www.w3.org/2000/svg">
<path fill-rule="evenodd" clip-rule="evenodd" d="M14.0959 24.222C13.9377 24.38 13.7232 24.4688 13.4996 24.4688C13.276 24.4688 13.0616 24.38 12.9034 24.222L5.02839 16.3616C4.94777 16.2838 4.88344 16.1908 4.83918 16.0878C4.79491 15.9849 4.77158 15.8742 4.77055 15.7622C4.76953 15.6501 4.79082 15.539 4.8332 15.4353C4.87558 15.3316 4.93818 15.2374 5.01737 15.1581C5.09655 15.0788 5.19073 15.0162 5.2944 14.9737C5.39807 14.9312 5.50917 14.9098 5.6212 14.9107C5.73323 14.9116 5.84396 14.9349 5.94692 14.979C6.04988 15.0232 6.14302 15.0874 6.22089 15.168L12.6548 21.5895L12.6424 3.37574C12.6421 3.15197 12.7307 2.93724 12.8887 2.7788C13.0467 2.62035 13.2612 2.53117 13.485 2.53087C13.7088 2.53057 13.9235 2.61918 14.082 2.7772C14.2404 2.93522 14.3296 3.14972 14.3299 3.37349L14.3411 21.5917L20.7784 15.1669C20.8563 15.0863 20.9494 15.0221 21.0524 14.9779C21.1553 14.9337 21.266 14.9105 21.3781 14.9096C21.4901 14.9087 21.6012 14.9301 21.7049 14.9726C21.8086 15.015 21.9027 15.0777 21.9819 15.157C22.0611 15.2362 22.1237 15.3305 22.1661 15.4342C22.2085 15.5379 22.2298 15.649 22.2287 15.761C22.2277 15.8731 22.2044 15.9838 22.1601 16.0867C22.1158 16.1896 22.0515 16.2827 21.9709 16.3605L14.0959 24.222Z" fill="white"/>
</svg>
