<svg width="40" height="40" viewBox="0 0 40 40" fill="none" xmlns="http://www.w3.org/2000/svg">
<path d="M19.5312 10.9375C17.8316 10.9375 16.1701 11.4415 14.7568 12.3858C13.3436 13.3301 12.2421 14.6723 11.5917 16.2426C10.9412 17.8129 10.771 19.5408 11.1026 21.2078C11.4342 22.8748 12.2527 24.4061 13.4546 25.6079C14.6564 26.8098 16.1877 27.6283 17.8547 27.9599C19.5217 28.2915 21.2496 28.1213 22.8199 27.4708C24.3902 26.8204 25.7324 25.7189 26.6767 24.3057C27.621 22.8924 28.125 21.2309 28.125 19.5312C28.1224 17.2528 27.2162 15.0685 25.6051 13.4574C23.994 11.8463 21.8097 10.9401 19.5312 10.9375ZM19.5312 26.5625C18.1406 26.5625 16.7812 26.1501 15.6249 25.3775C14.4686 24.6049 13.5674 23.5068 13.0352 22.222C12.503 20.9372 12.3638 19.5234 12.6351 18.1595C12.9064 16.7956 13.5761 15.5427 14.5594 14.5594C15.5427 13.5761 16.7956 12.9064 18.1595 12.6351C19.5234 12.3638 20.9372 12.503 22.222 13.0352C23.5068 13.5674 24.6049 14.4686 25.3775 15.6249C26.1501 16.7812 26.5625 18.1406 26.5625 19.5312C26.5625 21.3961 25.8217 23.1845 24.5031 24.5031C23.1845 25.8217 21.3961 26.5625 19.5312 26.5625ZM28.9062 0H10.1562C7.4636 0.00310154 4.88212 1.07413 2.97812 2.97812C1.07413 4.88212 0.00310154 7.4636 0 10.1562V28.9062C0.00310154 31.5989 1.07413 34.1804 2.97812 36.0844C4.88212 37.9884 7.4636 39.0594 10.1562 39.0625H28.9062C31.5989 39.0594 34.1804 37.9884 36.0844 36.0844C37.9884 34.1804 39.0594 31.5989 39.0625 28.9062V10.1562C39.0594 7.4636 37.9884 4.88212 36.0844 2.97812C34.1804 1.07413 31.5989 0.00310154 28.9062 0ZM37.5 28.9062C37.4974 31.1847 36.5912 33.369 34.9801 34.9801C33.369 36.5912 31.1847 37.4974 28.9062 37.5H10.1562C7.87784 37.4974 5.69349 36.5912 4.08241 34.9801C2.47132 33.369 1.56508 31.1847 1.5625 28.9062V10.1562C1.56508 7.87784 2.47132 5.69349 4.08241 4.08241C5.69349 2.47132 7.87784 1.56508 10.1562 1.5625H28.9062C31.1847 1.56508 33.369 2.47132 34.9801 4.08241C36.5912 5.69349 37.4974 7.87784 37.5 10.1562V28.9062ZM31.25 9.375C31.25 9.68403 31.1584 9.98613 30.9867 10.2431C30.815 10.5 30.571 10.7003 30.2854 10.8186C29.9999 10.9368 29.6858 10.9678 29.3827 10.9075C29.0796 10.8472 28.8012 10.6984 28.5826 10.4799C28.3641 10.2613 28.2153 9.98292 28.155 9.67983C28.0947 9.37673 28.1257 9.06257 28.2439 8.77706C28.3622 8.49155 28.5625 8.24752 28.8194 8.07583C29.0764 7.90414 29.3785 7.8125 29.6875 7.8125C30.1019 7.8125 30.4993 7.97712 30.7924 8.27015C31.0854 8.56317 31.25 8.9606 31.25 9.375Z" fill="#FFFF3F"/>
</svg>
