<?xml version="1.0" encoding="UTF-8"?>
<svg id="Capa_1" xmlns="http://www.w3.org/2000/svg" viewBox="0 0 444.37 139.45">
  <defs>
    <style>
      .cls-1 {
        fill: #ffff3f;
      }
    </style>
  </defs>
  <path class="cls-1" d="M0,0h22v58.58L50,0h22l-26.2,51.03,26.6,87.97h-23l-18.6-61.95-8.8,17.67v44.28H0V0Z"/>
  <g>
    <path class="cls-1" d="M76.7.06h15.32c10.52,0,15.04,4.91,15.04,14.92v2.6c0,6.67-2.03,10.85-6.55,12.7v.19c5.44,1.85,7.57,6.67,7.57,13.53v5.56c0,10.01-5.26,15.39-15.41,15.39h-15.96V.06ZM90.82,26.48c3.78,0,6.09-1.67,6.09-6.86v-3.62c0-4.63-1.57-6.67-5.17-6.67h-4.89v17.15h3.97ZM92.66,55.68c3.41,0,5.26-1.58,5.26-6.4v-5.65c0-6.03-1.94-7.88-6.55-7.88h-4.52v19.93h5.81Z"/>
    <path class="cls-1" d="M119.97.06h13.75l10.52,64.89h-10.15l-1.84-12.89v.19h-11.53l-1.85,12.7h-9.41L119.97.06ZM131.05,43.45l-4.52-32.07h-.18l-4.43,32.07h9.13Z"/>
    <path class="cls-1" d="M147.28.06h15.04c10.52,0,15.04,4.91,15.04,14.92v3.99c0,6.67-2.12,10.94-6.64,12.79v.19c5.07,1.58,6.74,6.4,6.74,13.72v11.4c0,3.15.31,5.38,2.02,7.96l-11.24-.08c-.55-1.67-.92-2.69-.92-7.97v-11.87c0-6.03-1.75-7.97-6.37-7.97h-3.51v27.81h-10.15V.06ZM161.12,27.87c3.78,0,6.09-1.67,6.09-6.86v-5.01c0-4.63-1.57-6.67-5.17-6.67h-4.61v18.54h3.69Z"/>
  </g>
  <g>
    <path class="cls-1" d="M76.84,73.89h14.68l6.55,46.26h.19l6.55-46.26h14.68v64.63h-9.73v-48.94h-.19l-7.48,48.94h-8.6l-7.48-48.94h-.19v48.94h-8.98v-64.63Z"/>
    <path class="cls-1" d="M124.91,123.2v-49.31h10.29v50.04c0,4.62,1.96,6.28,5.24,6.28s5.24-1.66,5.24-6.28v-50.04h9.91v49.31c0,10.34-5.24,16.25-15.34,16.25s-15.34-5.91-15.34-16.25Z"/>
    <path class="cls-1" d="M161,73.89h10.29v55.4h16.93v9.23h-27.21v-64.63Z"/>
    <path class="cls-1" d="M192.05,83.12h-10.76v-9.23h31.8v9.23h-10.76v55.4h-10.29v-55.4Z"/>
    <path class="cls-1" d="M216.18,73.89h10.29v64.63h-10.29v-64.63Z"/>
    <path class="cls-1" d="M232.27,73.89h28.06v9.23h-17.77v17.08h14.12v9.23h-14.12v19.85h17.77v9.23h-28.06v-64.63Z"/>
    <path class="cls-1" d="M262.75,123.2v-3.69h9.73v4.43c0,4.62,2.06,6.28,5.33,6.28s5.33-1.66,5.33-6.46c0-5.36-2.06-8.77-8.79-14.59-8.6-7.48-11.41-12.74-11.41-20.13,0-10.16,5.33-16.07,15.34-16.07s14.96,5.91,14.96,16.25v2.68h-9.73v-3.32c0-4.62-1.87-6.37-5.14-6.37s-5.14,1.75-5.14,6.19c0,4.71,2.15,8.13,8.88,13.94,8.6,7.48,11.32,12.65,11.32,20.68,0,10.53-5.42,16.44-15.53,16.44s-15.15-5.91-15.15-16.25Z"/>
    <path class="cls-1" d="M297.45,73.89h15.15c10.29,0,15.34,5.63,15.34,15.97v6.37c0,10.34-5.05,15.97-15.34,15.97h-4.86v26.31h-10.29v-64.63ZM312.6,102.98c3.27,0,5.05-1.48,5.05-6.09v-7.66c0-4.62-1.78-6.09-5.05-6.09h-4.86v19.85h4.86Z"/>
    <path class="cls-1" d="M336.35,73.89h13.93l10.66,64.63h-10.29l-1.87-12.83v.18h-11.69l-1.87,12.65h-9.54l10.66-64.63ZM347.58,117.1l-4.58-31.95h-.19l-4.49,31.95h9.26Z"/>
    <path class="cls-1" d="M363.19,123.57v-34.72c0-9.97,5.24-15.88,15.15-15.88s15.15,5.91,15.15,15.88v6.83h-9.73v-7.48c0-4.25-2.06-6-5.14-6s-5.14,1.75-5.14,6v36.1c0,4.25,2.06,5.91,5.14,5.91s5.14-1.66,5.14-5.91v-9.88h9.73v9.14c0,9.97-5.24,15.88-15.15,15.88s-15.15-5.91-15.15-15.88Z"/>
    <path class="cls-1" d="M397.79,73.89h10.29v64.63h-10.29v-64.63Z"/>
    <path class="cls-1" d="M413.13,123.2v-33.98c0-10.34,5.52-16.25,15.62-16.25s15.62,5.91,15.62,16.25v33.98c0,10.34-5.52,16.25-15.62,16.25s-15.62-5.91-15.62-16.25ZM434.08,123.84v-35.27c0-4.62-2.06-6.37-5.33-6.37s-5.33,1.75-5.33,6.37v35.27c0,4.62,2.06,6.37,5.33,6.37s5.33-1.75,5.33-6.37Z"/>
  </g>
</svg>