<svg width="45" height="39" viewBox="0 0 45 39" fill="none" xmlns="http://www.w3.org/2000/svg">
<g clip-path="url(#clip0_262_111)">
<path d="M7.23214 0H37.7679C39.6859 0 41.5255 0.840462 42.8818 2.33649C44.238 3.83252 45 5.86158 45 7.97727V31.0227C45 33.1384 44.238 35.1675 42.8818 36.6635C41.5255 38.1595 39.6859 39 37.7679 39H7.23214C5.31406 39 3.47454 38.1595 2.11825 36.6635C0.761957 35.1675 0 33.1384 0 31.0227V7.97727C0 5.86158 0.761957 3.83252 2.11825 2.33649C3.47454 0.840462 5.31406 0 7.23214 0ZM43.3929 9.22882V7.97727C43.3929 6.33171 42.8002 4.75363 41.7453 3.59001C40.6904 2.42641 39.2597 1.77273 37.7679 1.77273H7.23214C5.7403 1.77273 4.30956 2.42641 3.25467 3.59001C2.19977 4.75363 1.60714 6.33171 1.60714 7.97727V9.22882L22.5 22.0315L43.3929 9.22882ZM1.60714 11.2568V31.0227C1.60714 32.6683 2.19977 34.2464 3.25467 35.41C4.30956 36.5736 5.7403 37.2273 7.23214 37.2273H37.7679C39.2597 37.2273 40.6904 36.5736 41.7453 35.41C42.8002 34.2464 43.3929 32.6683 43.3929 31.0227V11.2568L22.8905 23.8201C22.7711 23.8934 22.6367 23.9318 22.5 23.9318C22.3633 23.9318 22.2289 23.8934 22.1095 23.8201L1.60714 11.2568Z" fill="#FFFF3F"/>
</g>
<defs>
<clipPath id="clip0_262_111">
<rect width="45" height="39" fill="white"/>
</clipPath>
</defs>
</svg>
