<svg width="40" height="40" viewBox="0 0 40 40" fill="none" xmlns="http://www.w3.org/2000/svg">
<path d="M30.822 23.5195L24.572 20.3945C24.449 20.3332 24.312 20.3055 24.1748 20.314C24.0376 20.3226 23.9052 20.3672 23.7907 20.4434L20.5407 22.6113C18.7542 21.7546 17.3135 20.3139 16.4568 18.5273L18.6247 15.2773C18.7009 15.1629 18.7455 15.0304 18.754 14.8933C18.7626 14.7561 18.7348 14.6191 18.6736 14.4961L15.5486 8.24609C15.4837 8.11564 15.3837 8.0059 15.2598 7.92928C15.1359 7.85266 14.9931 7.81221 14.8474 7.8125C12.9826 7.8125 11.1942 8.55329 9.87554 9.87191C8.55692 11.1905 7.81613 12.9789 7.81613 14.8438C7.82078 19.1935 9.55079 23.3638 12.6265 26.4396C15.7023 29.5153 19.8726 31.2453 24.2224 31.25C26.0872 31.25 27.8756 30.5092 29.1942 29.1906C30.5128 27.872 31.2536 26.0836 31.2536 24.2188C31.2537 24.0736 31.2134 23.9313 31.1372 23.8078C31.0609 23.6843 30.9518 23.5845 30.822 23.5195ZM24.2224 29.6875C20.2868 29.6834 16.5137 28.1181 13.7308 25.3353C10.948 22.5525 9.38277 18.7793 9.37863 14.8438C9.3784 13.475 9.89144 12.1559 10.8164 11.1471C11.7414 10.1382 13.0111 9.51283 14.3747 9.39453L17.07 14.7871L14.9216 18.0176C14.85 18.1242 14.8058 18.2468 14.7928 18.3745C14.7799 18.5022 14.7986 18.6312 14.8474 18.75C15.8854 21.2177 17.8484 23.1808 20.3161 24.2188C20.435 24.2681 20.5643 24.2874 20.6924 24.2748C20.8205 24.2622 20.9435 24.2181 21.0505 24.1465L24.281 21.998L29.6736 24.6934C29.5548 26.057 28.9289 27.3264 27.9197 28.2511C26.9104 29.1757 25.5911 29.6883 24.2224 29.6875ZM19.5349 3.37433e-07C16.1347 -0.000631624 12.7932 0.886422 9.84096 2.57342C6.88875 4.26041 4.4281 6.6889 2.7024 9.61866C0.976701 12.5484 0.0457543 15.8779 0.00164396 19.2779C-0.0424664 22.6778 0.801787 26.0304 2.4509 29.0039L0.126677 35.9746C-0.0110408 36.3876 -0.0310267 36.8307 0.0689592 37.2544C0.168945 37.6781 0.384951 38.0655 0.692768 38.3734C1.00058 38.6812 1.38805 38.8972 1.81173 38.9972C2.23541 39.0972 2.67856 39.0772 3.09152 38.9395L10.0622 36.6152C12.6697 38.06 15.5734 38.8888 18.5507 39.038C21.528 39.1872 24.5 38.6529 27.2389 37.4761C29.9778 36.2992 32.411 34.511 34.352 32.2485C36.293 29.9859 37.6904 27.3091 38.437 24.4231C39.1837 21.5371 39.2598 18.5184 38.6595 15.5984C38.0593 12.6784 36.7986 9.93459 34.974 7.57712C33.1494 5.21966 30.8095 3.31112 28.1333 1.99775C25.4572 0.684367 22.5159 0.00100007 19.5349 3.37433e-07ZM19.5349 37.5C16.3756 37.501 13.272 36.669 10.5368 35.0879C10.418 35.0195 10.2834 34.9831 10.1462 34.9824C10.0619 34.9826 9.97809 34.9965 9.89816 35.0234L2.59738 37.457C2.45973 37.5029 2.31201 37.5096 2.17078 37.4763C2.02956 37.4429 1.9004 37.3709 1.7978 37.2683C1.69519 37.1657 1.62319 37.0366 1.58986 36.8953C1.55653 36.7541 1.56319 36.6064 1.6091 36.4688L4.04269 29.168C4.0778 29.063 4.0902 28.9518 4.07909 28.8417C4.06798 28.7316 4.0336 28.6251 3.97824 28.5293C1.99719 25.105 1.20159 21.1226 1.71486 17.1999C2.22813 13.2773 4.02158 9.63369 6.81698 6.83436C9.61238 4.03502 13.2535 2.23645 17.1754 1.71767C21.0973 1.19889 25.0808 1.98889 28.5079 3.96512C31.935 5.94136 34.6141 8.99335 36.1297 12.6476C37.6452 16.3019 37.9124 20.3542 36.8898 24.1758C35.8673 27.9974 33.6121 31.3748 30.4742 33.7839C27.3362 36.1931 23.491 37.4993 19.5349 37.5Z" fill="#FFFF3F"/>
</svg>
